<?xml version="1.0" standalone="no"?>
<!DOCTYPE svg PUBLIC "-//W3C//DTD SVG 20010904//EN"
 "http://www.w3.org/TR/2001/REC-SVG-20010904/DTD/svg10.dtd">
<svg version="1.0" xmlns="http://www.w3.org/2000/svg"
 width="1000.000000pt" height="1000.000000pt" viewBox="0 0 1000.000000 1000.000000"
 preserveAspectRatio="xMidYMid meet">
<metadata>
Created by potrace 1.11, written by Peter Selinger 2001-2013
</metadata>
<g transform="translate(0.000000,1000.000000) scale(0.100000,-0.100000)"
fill="#000000" stroke="none">
<path d="M4040 9993 c-8 -4 -20 -11 -26 -18 -11 -11 -289 -486 -514 -880 -10
-16 -66 -113 -125 -215 -60 -102 -156 -268 -215 -370 -83 -145 -383 -662 -527
-910 -12 -19 -112 -192 -223 -385 -111 -192 -260 -449 -330 -570 -70 -121
-172 -296 -225 -390 -132 -229 -115 -199 -275 -475 -79 -135 -151 -260 -161
-277 -11 -18 -27 -48 -37 -65 -11 -18 -70 -121 -132 -228 -62 -107 -121 -208
-130 -225 -126 -218 -234 -403 -242 -413 -6 -7 -11 -31 -11 -53 0 -31 7 -47
27 -67 l26 -27 1065 -1 c586 -1 1067 -3 1069 -5 2 -2 -34 -152 -80 -334 -46
-181 -85 -341 -88 -355 -3 -14 -208 -835 -456 -1825 -319 -1272 -449 -1809
-445 -1831 7 -43 36 -66 87 -71 50 -5 31 -20 276 215 90 86 189 181 220 211
31 30 135 129 231 220 95 91 194 186 220 210 25 24 124 118 220 210 96 91 188
180 206 196 17 17 117 112 221 211 104 100 205 196 224 214 19 18 113 107 208
199 96 91 199 190 230 219 32 30 131 125 222 212 91 86 181 172 201 191 20 19
115 109 210 201 96 91 197 188 225 215 29 26 127 120 219 208 92 88 191 183
220 210 75 71 388 370 454 433 72 69 357 341 430 410 31 30 135 129 231 221
96 93 187 179 201 192 15 13 104 98 199 189 95 91 196 188 225 215 29 28 133
127 231 221 99 94 199 189 223 212 24 23 118 113 210 201 91 87 186 178 211
201 25 23 130 124 234 224 179 170 280 267 421 401 148 140 235 229 236 242 1
7 2 19 3 26 4 25 -17 69 -40 84 -21 14 -167 15 -1364 15 l-1340 1 32 41 c18
22 44 55 58 72 33 41 35 43 185 234 71 91 156 199 190 240 33 42 72 91 87 110
47 60 588 743 613 775 14 17 124 156 246 310 121 154 228 289 237 300 9 11 42
52 72 90 30 38 60 77 67 85 7 8 60 76 118 150 59 74 119 151 135 170 15 19
103 130 194 245 149 188 166 214 166 248 0 29 -7 46 -29 68 l-29 29 -2339 -1
c-1286 0 -2345 -3 -2353 -6z m3150 -818 c0 -3 -63 -85 -141 -182 -77 -98 -152
-194 -167 -212 -29 -37 -195 -246 -215 -271 -7 -8 -53 -67 -102 -130 -49 -63
-92 -117 -95 -120 -3 -3 -46 -57 -95 -120 -50 -63 -96 -121 -103 -128 -7 -8
-24 -30 -39 -50 -15 -21 -39 -51 -53 -68 -32 -40 -47 -59 -90 -114 -19 -25
-37 -47 -40 -50 -3 -3 -71 -88 -150 -190 -80 -102 -149 -190 -155 -196 -5 -6
-73 -91 -150 -189 -77 -98 -311 -394 -521 -659 l-380 -481 1264 -5 1264 -5
-173 -165 c-94 -91 -190 -182 -213 -204 -38 -35 -285 -271 -430 -409 -172
-165 -374 -358 -424 -405 -74 -70 -367 -350 -446 -426 -34 -32 -130 -124 -215
-205 -210 -200 -233 -221 -441 -421 -101 -96 -200 -191 -220 -210 -33 -31
-296 -282 -430 -410 -26 -25 -130 -124 -231 -220 -101 -96 -224 -214 -274
-262 -49 -47 -115 -109 -145 -138 -30 -28 -85 -81 -122 -117 -38 -36 -68 -63
-68 -61 0 2 23 94 51 204 27 109 52 206 54 214 2 8 20 81 39 162 20 80 39 154
41 165 2 10 20 81 40 158 20 77 37 147 39 155 2 8 38 152 81 320 42 168 78
312 80 320 2 8 20 80 40 160 20 80 38 154 40 166 3 11 52 209 110 439 58 230
101 421 96 424 -5 3 -427 5 -938 5 -510 -1 -931 1 -935 3 -4 2 10 32 31 66 21
34 57 94 78 132 22 39 75 131 118 205 43 74 86 148 94 163 9 16 21 36 26 45 6
9 37 63 70 120 33 57 68 118 79 135 10 18 70 122 134 232 63 110 138 238 165
285 27 47 59 101 70 120 10 19 58 103 106 185 48 83 103 177 122 210 47 82 40
71 169 292 63 108 126 217 140 242 14 25 33 57 41 71 15 24 224 385 267 462
12 20 32 55 46 77 15 22 26 43 26 46 0 4 41 74 90 155 5 8 37 64 72 125 35 60
68 118 73 127 6 9 34 59 64 110 29 51 85 146 123 211 l69 117 1344 0 c740 0
1345 -2 1345 -5z"/>
</g>
</svg>
