<svg xmlns="http://www.w3.org/2000/svg" viewBox="0 0 338.54 327.33"><title>bear</title><path d="M169.27,327.33a5.28,5.28,0,0,1-2.56-.66l-2.28-1.24A348,348,0,0,1,89,269.63a392,392,0,0,1-50.29-60.92c-25.59-38.09-36.56-68-37-69.27L.32,135.61a5.34,5.34,0,0,1,1.58-5.9l3-2.57c.36-.33,5.65-5.38,14.45-18.81-3.45-10.41-10.82-36-8.33-57.44l.12-1.07A5.52,5.52,0,0,1,11.75,48l.5-.95C14,43.63,29.87,13.56,42.59,3.28l2.6-2.09A5.31,5.31,0,0,1,50.41.34l3.12,1.17c.24.09,24.69,9.07,47.34,9.07.72,0,1.43,0,2.14,0,10.18-5.29,16.66-8,17.38-8.27L122,1.61a5.24,5.24,0,0,1,2-.4,6,6,0,0,1,1.11.11l44.1,9.31,44.1-9.31a5.86,5.86,0,0,1,1.1-.11,5.28,5.28,0,0,1,2,.4l1.65.67c.72.3,7.19,3,17.38,8.27.7,0,1.42,0,2.14,0,22.66,0,47.1-9,47.34-9.07L288.13.34A5.28,5.28,0,0,1,290,0a5.37,5.37,0,0,1,3.35,1.18l2.6,2.1C308.67,13.56,324.53,43.63,326.29,47l.5.95a5.52,5.52,0,0,1,.57,1.85l.12,1.07c2.49,21.48-4.89,47-8.33,57.44,8.7,13.29,14,18.37,14.49,18.85l3,2.53a5.34,5.34,0,0,1,1.58,5.9l-1.39,3.83c-.45,1.25-11.43,31.18-37,69.27a393.17,393.17,0,0,1-50.29,60.92,347.91,347.91,0,0,1-75.42,55.79l-2.28,1.25A5.31,5.31,0,0,1,169.27,327.33Z" fill="#ebe4d1"/><path d="M169.27,322,167,320.75a342,342,0,0,1-74.25-54.92,387.7,387.7,0,0,1-49.61-60.09C18,168.22,7.17,138.85,6.72,137.62l-1.39-3.83,3.12-2.62s6.23-5.56,16.82-22.11C23,102.65,13.72,74.23,16.36,51.51l.12-1.07.5-1c.68-1.31,16.91-32.32,29-42l2.6-2.1L51.66,6.5c.25.1,25.48,9.41,49.21,9.41,1.2,0,2.38,0,3.53-.07,10.54-5.52,17.27-8.32,18-8.62l1.65-.68,45.21,9.54,45.2-9.54,1.65.68c.75.3,7.48,3.1,18,8.62,1.15.05,2.33.07,3.53.07,23.73,0,49-9.31,49.21-9.41L290,5.33l2.59,2.1c12.06,9.73,28.28,40.74,29,42.05l.5,1,.12,1.07c2.64,22.72-6.67,51.14-8.92,57.55,10.6,16.55,16.79,22.07,16.86,22.13l3.08,2.6-1.39,3.83c-.44,1.23-11.22,30.6-36.42,68.12a387.65,387.65,0,0,1-49.6,60.09,342.28,342.28,0,0,1-74.25,54.92Z" fill="#191a1d"/><path d="M51.12,40.72l.16,0a33.32,33.32,0,0,0,24.1-5c5.73-3.76,12.75-8.3,16.76-10.63-18.58-1.42-35.83-6.89-41.72-8.92C46.3,20.08,41,27.36,34.8,37.4c-4.47,7.31-8,13.9-9.07,15.88C24,69.86,29.38,90.4,32.54,100.65,33.51,57.92,51.12,40.72,51.12,40.72ZM128,205.53c2.82,4.29,38.36-6.48,38.36-6.48h0a8,8,0,0,0-6.8-7.9L150,189.73l-.56-.51a58.22,58.22,0,0,1-13.84-18.65l-.39-.93.34-.95c5.34-14.67,16.6-25.61,17.07-26.07l1.06-1,6.9,2a31.4,31.4,0,0,0,17.3,0l6.9-2,1.05,1c.48.46,11.74,11.4,17.07,26.07l.35.95-.39.93a58.4,58.4,0,0,1-13.84,18.65l-.56.51L179,191.15a8,8,0,0,0-6.81,7.9h0s35.55,10.77,38.36,6.48c4.82-7.33,7.9-19.54,8.57-22.14l-11.56-20.62-.06-.26c0-.14.22-25-9.58-44.61-4.4-8.8-17.82-24.05-17.94-24.21a56.29,56.29,0,0,1,9.79,3,15.26,15.26,0,0,0,14-1l.07,0c6-3.64,9-5.35,11.81-4.3s10.25,7.25,17.61,13.65a15.65,15.65,0,0,0,23.53-3.41,61.58,61.58,0,0,0,5.64-11.55,131.16,131.16,0,0,0-42.25-34.31,20.86,20.86,0,0,0-20.62,1L169.38,75.82V76l-.11-.07-.11.07v-.14L139,56.75a20.86,20.86,0,0,0-20.62-1A131.16,131.16,0,0,0,76.13,90.09a61.58,61.58,0,0,0,5.64,11.55,15.65,15.65,0,0,0,23.53,3.41c7.35-6.4,14.93-12.65,17.61-13.65s5.8.66,11.81,4.3l.07,0a15.25,15.25,0,0,0,14,1,56.29,56.29,0,0,1,9.79-3c-.12.16-13.54,15.41-17.94,24.21-9.8,19.58-9.56,44.47-9.59,44.61l0,.26-11.56,20.62C120.09,186,123.17,198.2,128,205.53Zm70.44,10.13s-14.21-5.44-19.06-7a33.55,33.55,0,0,0-20.2,0c-4.74,1.38-19.07,7-19.07,7l18.51,7.72a24.19,24.19,0,0,0,21.32,0ZM300.69,106.82c-13-21.69-31.08-54.7-34-60.12a347.57,347.57,0,0,0-35.19-21.49,2.8,2.8,0,0,1-1-.5c-8.54-4.5-14.68-7.26-17-8.26l-44.14,9v.05l-.11,0-.11,0v-.05l-44.15-9c-2.31,1-8.45,3.76-17,8.26a2.73,2.73,0,0,1-1,.5A347.57,347.57,0,0,0,71.88,46.7c-3,5.42-21,38.43-34,60.12-10.62,17.7-18,26.32-21.34,29.75,3,7.48,13.92,33.2,34.66,64.06a378.78,378.78,0,0,0,48.36,58.53,327,327,0,0,0,66.76,50.9c-16.86-19.2-84.64-102.3-78.06-190.25-14.46-11.1-19.52-28.64-19.75-29.45L68,88.57l1.14-1.46C94.91,53.93,127.58,43.68,129,43.26l1.57-.48,3.84,2.4a66,66,0,0,0,69.79,0l3.85-2.4,1.57.48c1.37.42,34,10.67,59.84,43.85l1.13,1.46-.5,1.79c-.22.81-5.28,18.35-19.74,29.45,6.58,87.95-61.2,171.05-78.06,190.25A327.23,327.23,0,0,0,239,259.16a378.78,378.78,0,0,0,48.36-58.53c20.74-30.86,31.68-56.58,34.65-64.06C318.72,133.14,311.31,124.52,300.69,106.82ZM159.51,160.49c5.09-.39,9.06,8,9.76,10.24.7-2.2,4.67-10.63,9.76-10.24,5.62.43,11.67,7,12.11,9s-5,12.76-5,12.76c6.74-6.29,10.41-10.37,11.57-12.75-4.12-10.62-11.69-19.21-14.41-22.08l-7.54,2a26.15,26.15,0,0,1-13.15,0l-7.33-1.93c-2.72,2.87-10.29,11.46-14.42,22.08,1.17,2.38,4.83,6.46,11.57,12.75,0,0-5.44-10.74-5-12.76S153.89,160.92,159.51,160.49ZM285.79,41c.58-.07,1.12-.16,1.62-.25,0,0,17.62,17.2,18.59,59.93,3.16-10.25,8.52-30.79,6.81-47.37-1.05-2-4.6-8.57-9.07-15.88-6.15-10-11.5-17.32-15.62-21.24-5.89,2-23.14,7.5-41.72,8.92,4.06,2.36,11.17,6.94,16.92,10.69A33.39,33.39,0,0,0,285.79,41Z" fill="#f5222d"/><path d="M134.68,113.15l-11.35-4.76c-1.73,1.3-1.3,10.16,5.41,10.16S134.68,113.15,134.68,113.15Z" fill="#ebe4d1"/><path d="M215.21,108.39l-11.35,4.76s-.76,5.4,5.94,5.4S216.94,109.69,215.21,108.39Z" fill="#ebe4d1"/></svg>