<svg xmlns="http://www.w3.org/2000/svg" viewBox="0 0 362.13 327.33"><title>bull</title><path d="M181.06,327.33a5,5,0,0,1-2.57-.72l-2.1-1.26a355.07,355.07,0,0,1-82.5-68.3c-18.83-21.2-29.06-37.21-29.48-37.88l-1-1.66a5,5,0,0,1-.75-3.29l.24-1.94c5.19-42.48,17.26-70.07,21.6-78.9q.12-3.7.49-7.41l-5.6,1.18a4.51,4.51,0,0,1-1,.11,5,5,0,0,1-2-.44l-1.63-.73C60.31,119.66,28.92,95,27.59,94L21.29,89a5,5,0,0,1-1.89-4.27,5,5,0,0,1,2.28-3.87Q19.31,80,17.14,79C6.43,73.89,0,64.48,0,53.81,0,45,4.46,28.13,34.66,13.6,60.19,1.33,85.63,0,95.38,0c3.17,0,5.14.13,5.66.17a10.47,10.47,0,0,1,2.2,20.48A423.31,423.31,0,0,0,63.44,35.1c-1,.44-2,.88-2.86,1.3,18.25-1.32,46.7-6.49,54.9-8l3.58-4.72a5,5,0,0,1,2.85-1.85l43.56-10.17a4.92,4.92,0,0,1,1.14-.13,5,5,0,0,1,2,.41l12.48,5.36,12.48-5.36a5,5,0,0,1,2-.41,4.92,4.92,0,0,1,1.14.13L240.22,21.8a5,5,0,0,1,2.84,1.85l3.59,4.72c8.2,1.54,36.65,6.71,54.89,8-.87-.42-1.82-.86-2.86-1.3a420.18,420.18,0,0,0-39.8-14.45A10.47,10.47,0,0,1,261.09.17c.37,0,2.39-.17,5.66-.17,9.75,0,35.19,1.33,60.72,13.6,12.8,6.16,22.23,13.32,28,21.29,5.51,7.6,6.66,14.48,6.65,18.92C362.1,64.48,355.7,73.89,345,79q-2.17,1-4.55,1.9a5,5,0,0,1,.39,8.14l-6.29,5c-3.34,2.62-33,25.83-47.05,32.12l-1.62.73a5,5,0,0,1-2.05.44,4.45,4.45,0,0,1-1-.11l-5.6-1.18c.24,2.47.41,4.94.49,7.41,4.33,8.83,16.4,36.41,21.59,78.9l.24,1.95a5,5,0,0,1-.74,3.28l-1,1.66c-.43.67-10.65,16.68-29.49,37.88a354.81,354.81,0,0,1-82.49,68.3l-2.11,1.26A5,5,0,0,1,181.06,327.33Z" fill="#ebe4d1"/><path d="M181.06,322.33l-2.1-1.26a349.91,349.91,0,0,1-81.33-67.34c-18.55-20.88-28.58-36.59-29-37.24l-1-1.66.23-1.94c5.4-44.13,18.49-72.1,21.61-78.28a105.9,105.9,0,0,1,1.4-15l-12.51,2.64-1.63-.73C63,115.38,32,91.07,30.68,90l-6.3-5L31.28,81c1.14-.67,2.28-1.32,3.43-2a57,57,0,0,1-15.43-4.61C10.36,70.22,5,62.5,5,53.8c0-7.6,4.1-22.36,31.83-35.69C61.43,6.28,86,5,95.38,5c3.08,0,5,.13,5.29.15a5.47,5.47,0,0,1,1.15,10.71A422.38,422.38,0,0,0,61.48,30.5C51.23,34.88,47.57,39,46.67,40.63c1,.44,3.23,1.07,7.35,1.07h1.12C74.4,41.2,112.83,34,118.3,32.93L123,26.67,166.61,16.5l14.45,6.21,14.46-6.21,43.56,10.17,4.75,6.26c5.46,1,43.9,8.27,63.16,8.76h1.12c4.11,0,6.38-.63,7.35-1.07-.9-1.64-4.56-5.75-14.81-10.13A424.13,424.13,0,0,0,260.3,15.86a5.48,5.48,0,0,1,1.15-10.71c.35,0,2.21-.15,5.29-.15,9.41,0,34,1.28,58.56,13.11,12.05,5.79,20.84,12.43,26.13,19.71,4.72,6.51,5.7,12.29,5.7,16,0,8.7-5.36,16.42-14.29,20.66a57,57,0,0,1-15.42,4.61q1.72.95,3.42,2l6.9,4.06-6.3,5c-1.31,1-32.29,25.34-46,31.49l-1.63.73-12.52-2.64a104.46,104.46,0,0,1,1.41,15c3.12,6.17,16.21,34.14,21.6,78.28l.24,1.94-1.05,1.66c-.42.65-10.46,16.36-29,37.24a350.17,350.17,0,0,1-81.34,67.34Z" fill="#191a1d"/><path d="M199.16,217.8c7.64,1.73,13,.39,14.52-.1,7.84-9.38,9.44-21.44,9.62-28.61a11.43,11.43,0,0,0-5.06-9.78,29.12,29.12,0,0,0-15.46-4.7c-7,9.82-20.06,10.69-21.64,10.76H181c-1.58-.07-14.61-.94-21.64-10.76a29.15,29.15,0,0,0-15.47,4.7,11.45,11.45,0,0,0-5.06,9.78c.18,7.17,1.79,19.23,9.63,28.61,1.56.49,6.88,1.83,14.52.1,6.75-1.53,16.67-2,18-2.08h.15C182.48,215.78,192.41,216.27,199.16,217.8ZM195,191.53c7-10.36,22.3-6.08,22.3-6.08-3.92.4-7,3.92-7,3.92a11,11,0,0,1-3.38,11.21c2.84-.27,6.9-3.11,6.9-3.11C206.22,212.74,186.56,203.93,195,191.53Zm-46.6,5.94s4,2.84,6.89,3.11a11,11,0,0,1-3.38-11.21s-3.1-3.52-7-3.92c0,0,15.26-4.28,22.29,6.08C175.56,203.93,155.9,212.74,148.37,197.47ZM131,56.43c0,.28,0,.56,0,.83a7.29,7.29,0,0,0,7.55,7.85,51.41,51.41,0,0,1,5.38.09s-19,5.44-25.78,13.43c-4.4,5.17-15.63,19.93-18.9,44.71a16.77,16.77,0,0,0,7.52,16.25l15,9.73,15.9,28.73a32.6,32.6,0,0,1,19.74-8.24s-40.65-60.54-46-62.64l24.41.72,6.16,4,.64-21.36,20,80.16.14.2c5.51,8.79,17.33,9.56,18.33,9.6s12.83-.81,18.34-9.6l.13-.2,20-80.16.64,21.36,6.16-4,24.41-.72c-5.36,2.1-46,62.64-46,62.64a32.58,32.58,0,0,1,19.73,8.24l15.91-28.73,12-7.77A22.32,22.32,0,0,0,262.24,119C258.31,96.81,248.15,83.49,244,78.63c-6.79-8-25.78-13.43-25.78-13.43a51.45,51.45,0,0,1,5.38-.09,7.29,7.29,0,0,0,7.56-7.85c0-.27,0-.55,0-.83-.44-10.18,2.51-16.16,4.77-19.2l-2-2.61L200,26.7a12.78,12.78,0,0,0-7.27.42l-11.49,4.14v.11l-.15-.05-.14.05v-.11l-11.49-4.14a12.78,12.78,0,0,0-7.27-.42l-34,7.92-2,2.61C128.5,40.27,131.45,46.25,131,56.43ZM271.4,74.78c-8.49.66-15.63,8.53-13.86,11.68,5.78-1.5,26.61-6.24,43-1.4L289.33,96.85a45,45,0,0,1-22.27,12.76l15.73,3.32c10.29-5,30.41-20.11,39-26.73C301.18,75.22,283.18,73.87,271.4,74.78Zm-5.52,68.94L259,147.29a49.42,49.42,0,0,0-20.61,20h0a28.51,28.51,0,0,0,1.19,29.53c7,10.68,10.44,20,12,30.34a26.53,26.53,0,0,1-5.36,20.12,438.3,438.3,0,0,1-63.47,65.79c62.08-39.58,96.46-90.76,101.84-99.15.32-.47.59-.87.8-1.2a270.85,270.85,0,0,0-12.65-54.86C269.92,150,267.44,147,265.88,143.72ZM321.44,26.15a124.64,124.64,0,0,0-33.77-10.41c5.2,1.94,10.82,4.15,16.48,6.56C318.32,28.36,325.9,36,324.42,42.77c-.43,2-1.84,4.68-6.14,6.34a30.52,30.52,0,0,1-11.52,1.49c-21.39-.54-64.59-9.07-64.65-9.09-1.45,2-3.65,6.5-3.29,14.62.37,8.51,20.75,12.71,31.67,11.81a92.52,92.52,0,0,1,30.15,2.66,3.4,3.4,0,0,1,1.46-.09c.22,0,21.56,3.2,36.91-4.1,5.84-2.77,9.19-7.38,9.2-12.63C348.23,44.41,338.47,34.34,321.44,26.15ZM202.81,224a39.39,39.39,0,0,1-4.73-.78,166.07,166.07,0,0,0-17-2.62,166.48,166.48,0,0,0-17,2.62,39.24,39.24,0,0,1-4.72.78l5.26,6.33S169,233,181.06,233s16.48-2.7,16.48-2.7ZM60,70.51a3.45,3.45,0,0,1,1.47.09,92.47,92.47,0,0,1,30.14-2.66c10.92.9,31.31-3.3,31.68-11.81.35-8.12-1.84-12.58-3.3-14.62-.05,0-43.26,8.55-64.65,9.09a30.46,30.46,0,0,1-11.51-1.49c-4.3-1.66-5.72-4.37-6.15-6.34C36.23,36,43.81,28.36,58,22.3c5.66-2.41,11.28-4.62,16.47-6.56A124.69,124.69,0,0,0,40.69,26.15c-17,8.19-26.79,18.26-26.77,27.63,0,5.25,3.36,9.86,9.19,12.63C38.46,73.71,59.81,70.54,60,70.51Zm35,39.1A45.06,45.06,0,0,1,72.79,96.85L61.56,85.06c16.41-4.84,37.24-.1,43,1.4,1.76-3.15-5.37-11-13.87-11.68C79,73.87,60.94,75.22,40.29,86.2c8.64,6.62,28.76,21.72,39.05,26.73Zm15.58,117.53c1.52-10.31,4.92-19.65,12-30.32a28.51,28.51,0,0,0,1.2-29.53h0a49.42,49.42,0,0,0-20.61-20l-6.94-3.57c-1.55,3.32-4,6.32-6.77,14.14a272.23,272.23,0,0,0-12.65,54.86l.8,1.2c5.38,8.39,39.76,59.57,101.85,99.15A457.27,457.27,0,0,1,116,247.29,26.52,26.52,0,0,1,110.64,227.14Z" fill="#52c41a"/><path d="M229.1,121.58c2.81-.54,4.56-1.92,5.35-4.22a15.88,15.88,0,0,0,.45-3.7l-7,1.11-6.37,4.35C222.52,120.47,224.79,122.42,229.1,121.58Z" fill="#ebe4d1"/><path d="M127.22,113.66a15.93,15.93,0,0,0,.46,3.7c.79,2.3,2.54,3.68,5.34,4.22,4.32.84,6.58-1.11,7.59-2.46l-6.38-4.35Z" fill="#ebe4d1"/></svg>