<svg xmlns="http://www.w3.org/2000/svg" viewBox="0 0 176.77 176.77">
  <title>Asset 1</title>
  <path d="M88.39,4a84.39,84.39,0,1,0,84.39,84.39A84.39,84.39,0,0,0,88.39,4Z" style="fill:#fff;fill-rule:evenodd"/>
  <path d="M88.39,0a88.39,88.39,0,1,0,62.5,25.89A88.11,88.11,0,0,0,88.39,0ZM31.54,31.54A80.39,80.39,0,1,1,8,88.39,80.14,80.14,0,0,1,31.54,31.54Z"/>
  <path d="M50.25,87.55C43.35,90.8,37.33,95,30,91.32c3.41,6.79,10.63,7.3,14.64,6.59,5.73-1,11.11-5.27,22.26-1.33-4.59-.59-8.11,0-10.26,1.21-2.64,4.07-3.81,7.61-3.72,9,.86,13-9.42,23.16-9.72,25.88-.17,1.58,3.85,9,5.11,10,2.06,1.58,9.27,4.42,12.29,3.41,22.14-7.37,41.24,3.07,52.13,14.05A75.74,75.74,0,0,0,88.39,12.66c-1.43,0-2.85,0-4.26.12,5.13,3.41,11.81,5.35,18.25,7.22,6.83,2,13.41,3.9,18.41,7.48h.52c5.57-.13,11-.25,11.64,7.51a6.51,6.51,0,0,1-.65,3.37L134,40.18h0c3.92,4.23,8.84,9.54,8.87,12.32a18.64,18.64,0,0,1-.27,2.81c-.36,2.54-.92,6.44.72,8.76.78,1.09,1.52,2.09,2.27,3.09,3.63,4.85,7.4,9.87,5,13.13a7.65,7.65,0,0,1-3.09,2.26h0A6.59,6.59,0,0,1,146,83a22.93,22.93,0,0,1-6.4,3.24,16.31,16.31,0,0,1-8.1.72,7.3,7.3,0,0,1-1.14-.34l-.05.14a3.67,3.67,0,0,1-.91,1.3,3.46,3.46,0,0,1-.49.39,12.89,12.89,0,0,1-4.88,1.71h0c-.32,0-.63.08-1,.1h-1.62a7.57,7.57,0,0,1-2.51-.58C94.49,78.71,85.65,82,79.06,84.42,74.7,86,71.12,87.36,65.6,85.62h0c-5.75-1.87-10.53-.3-15.33,1.94Zm5.55,26,2.84,1.38,3.15-6.49-6,5.11Z" style="fill:#05204a;fill-rule:evenodd"/>
  <path d="M50.25,87.55C43.35,90.8,37.33,95,30,91.32c3.41,6.79,10.63,7.3,14.64,6.59,5.73-1,11.11-5.27,22.26-1.33-4.59-.59-8.11,0-10.26,1.21-2.64,4.07-3.81,7.61-3.72,9a26.19,26.19,0,0,1-1.44,10.15,82.84,82.84,0,0,0,112.6-31A75.73,75.73,0,0,0,88.39,12.66c-1.43,0-2.85,0-4.26.12,5.13,3.41,11.81,5.35,18.25,7.22,6.83,2,13.41,3.9,18.41,7.48h.52c5.57-.13,11-.25,11.64,7.51a6.51,6.51,0,0,1-.65,3.37L134,40.18h0c3.92,4.23,8.84,9.54,8.87,12.32a18.64,18.64,0,0,1-.27,2.81c-.36,2.54-.92,6.44.72,8.76.78,1.09,1.52,2.09,2.27,3.09,3.63,4.85,7.4,9.87,5,13.13a7.65,7.65,0,0,1-3.09,2.26h0A6.59,6.59,0,0,1,146,83a22.93,22.93,0,0,1-6.4,3.24,16.31,16.31,0,0,1-8.1.72,7.3,7.3,0,0,1-1.14-.34l-.05.14a3.67,3.67,0,0,1-.91,1.3,3.46,3.46,0,0,1-.49.39,12.89,12.89,0,0,1-4.88,1.71h0c-.32,0-.63.08-1,.1h-1.62a7.57,7.57,0,0,1-2.51-.58C94.49,78.71,85.65,82,79.06,84.42,74.7,86,71.12,87.36,65.6,85.62h0c-5.75-1.87-10.53-.3-15.33,1.94Zm5.55,26,2.84,1.38,3.15-6.49-6,5.11Z" style="fill:#05285b;fill-rule:evenodd"/>
  <path d="M25.53,90.22l1.35,2.68a15.16,15.16,0,0,0,7.46,7.21,19.25,19.25,0,0,0,10.9,1.25A35.74,35.74,0,0,0,50,100l1.57-.5c-.35.7-.66,1.37-.92,2A13.55,13.55,0,0,0,49.42,107c.54,8.14-4.15,15.38-7,19.72-1.48,2.29-2.57,4-2.74,5.57s.87,4.22,2.18,6.78,3.23,5.54,4.28,6.34a27.71,27.71,0,0,0,8,3.57c2.69.75,5.48,1.06,7.51.38a42.85,42.85,0,0,1,26-.54,53.26,53.26,0,0,1,21.28,12.45A75.79,75.79,0,0,1,12.68,90.22c0-.61,0-1.22,0-1.83A75.74,75.74,0,0,1,79,13.24c11,9.93,30.77,9.86,40.61,17.75,4.42,0,9.44-.87,9.83,4.25.18,2.26-2.37,4.69-7.53,5.41a18.8,18.8,0,0,0,7.47-.28c3.53,3.88,9.94,10.44,10,12.19,0,2.34-2.11,9,1.1,13.56s8.42,10.64,7.33,12.14c-.48.66-2.2,1.57-3,1.18-2,2.06-8.14,5-12.56,4.06-3.9-.8-7.72-9.21-14.54-6.72,1.74,2.23,4.69,5.76,8.24,7.23,1.05.44,1.39,1.27,1.09,1.47-1.59,1-5,1.7-6.63,1-39.25-17.51-41-.14-53.73-4.16C53.53,78,45.28,88.36,36,89.44L33.9,89h0a9.38,9.38,0,0,1-2.35-.82l-9.42-4.73,3.39,6.74ZM134.25,58l-2.78,1.5L128,53.14l6.2,4.85Z" style="fill:#dc0024;fill-rule:evenodd"/>
  <path d="M25.53,90.22l1.35,2.68a15.16,15.16,0,0,0,7.46,7.21,19.25,19.25,0,0,0,10.9,1.25A35.74,35.74,0,0,0,50,100l1.57-.5c-.35.7-.66,1.37-.92,2A13.55,13.55,0,0,0,49.42,107c.54,8.14-4.15,15.38-7,19.72-1.48,2.29-2.57,4-2.74,5.57s.87,4.22,2.18,6.78,3.23,5.54,4.28,6.34a27.71,27.71,0,0,0,8,3.57c2.69.75,5.48,1.06,7.51.38a42.85,42.85,0,0,1,26-.54,53.26,53.26,0,0,1,21.28,12.45A75.79,75.79,0,0,1,12.68,90.22c0-.61,0-1.22,0-1.83a76.49,76.49,0,0,1,.56-9.24,82.78,82.78,0,0,1,110.31-2,6.94,6.94,0,0,0-5.83-.41c1.74,2.23,4.69,5.76,8.24,7.23,1.05.44,1.39,1.27,1.09,1.47-1.59,1-5,1.7-6.63,1-39.25-17.51-41-.14-53.73-4.16C53.53,78,45.28,88.36,36,89.44L33.9,89h0a9.38,9.38,0,0,1-2.35-.82l-9.42-4.73,3.39,6.74Z" style="fill:#c60020;fill-rule:evenodd"/>
</svg>
