<svg xmlns="http://www.w3.org/2000/svg" xmlns:xlink="http://www.w3.org/1999/xlink" viewBox="0 0 235.45519 235.4553"><defs><linearGradient id="a" x1="73.89211" y1="18.46789" x2="150.61346" y2="192.19343" gradientTransform="translate(117.72765 -48.76435) rotate(45)" gradientUnits="userSpaceOnUse"><stop offset="0" stop-color="#8d8d8e"/><stop offset="0.54123" stop-color="#ababab"/><stop offset="1" stop-color="#c7c7c7"/></linearGradient><linearGradient id="b" x1="141.2907" y1="227.28701" x2="199.04727" y2="85.05045" gradientUnits="userSpaceOnUse"><stop offset="0" stop-color="#ddd"/><stop offset="1" stop-color="#cdcccc"/></linearGradient></defs><title>moon_1</title><g style="isolation:isolate"><circle cx="117.7276" cy="117.72767" r="117.7276" transform="translate(-48.76442 117.72762) rotate(-45)" fill="url(#a)"/><path d="M230.95449,117.7277A113.22688,113.22688,0,0,1,117.7276,230.9546c-9.5588,0-21.4613-.43-30.2032-4.704,17.5829-.4641,35.7481-1.1462,52.0763-7.686,21.7677-8.7185,22.7374-23.5813,33.0342-34.4834,3.1399-3.3245,7.3936-7.3493,10.7155-10.4918,7.4059-7.006,1.9396-17.9608,10.9482-29.3572,2.069-2.6174,5.16-4.2653,8.07359-5.8909,26.5586-14.8185,22.1372-47.2616,21.77441-58.0387C229.55209,91.4984,230.95449,105.3974,230.95449,117.7277Z" opacity="0.52" fill="url(#b)"/><path d="M76.3696,70.1655c4.5952,6.5276,1.357,16.7213-7.2327,22.7682s-19.2784,5.6574-23.8736-.8701-1.357-16.7213,7.2328-22.7682S71.7744,63.638,76.3696,70.1655Z" fill="#999" opacity="0.43" style="mix-blend-mode:multiply"/><ellipse cx="24.82995" cy="105.69687" rx="12.41533" ry="9.43463" transform="translate(-81.60503 84.25041) rotate(-65.38753)" fill="#999" opacity="0.43" style="mix-blend-mode:multiply"/><path d="M31.5972,121.8183c2.6968,1.2353,3.565,5.1136,1.9394,8.6623s-5.1297,5.424-7.8264,4.1886-3.565-5.1136-1.9394-8.6623S28.9005,120.5829,31.5972,121.8183Z" fill="#999" opacity="0.43" style="mix-blend-mode:multiply"/><path d="M106.9953,22.4676c.6556,3.078-2.9714,6.4589-8.101,7.5514s-9.8195-.517-10.4751-3.595,2.9714-6.4589,8.1011-7.5515S106.3398,19.3896,106.9953,22.4676Z" fill="#999" opacity="0.43" style="mix-blend-mode:multiply"/><path d="M80.2264,31.1025c3.1003,3.8072-1.2315,12.4676-9.6754,19.3436s-17.8022,9.3638-20.9024,5.5567,1.2315-12.4676,9.6754-19.3436S77.1262,27.2953,80.2264,31.1025Z" fill="#999" opacity="0.43" style="mix-blend-mode:multiply"/><ellipse cx="29.59995" cy="63.72942" rx="13.8343" ry="6.23762" transform="translate(-40.4615 58.34526) rotate(-60.69239)" fill="#999" opacity="0.43" style="mix-blend-mode:multiply"/><path d="M202.6016,36.621c.11289.0858.29379.0142.43739.0271A117.72782,117.72782,0,0,0,11.5365,168.6023c-.3158-3.7725-1.3764-7.5735-2.0531-11.3299-3.301-18.3204-3.5743-40.9178,4.4058-57.6228,8.2674-17.3064,22.8233-9.3289,23.9547-1.126.185,1.3411.6466-2.4531.9262-12.715C39.067,74.913,47.529,64.8262,56.8835,62.2772c33.9053-9.2388,39.6796-42.7661,14.8774-39.7899C116.0741,1.3228,170.6389,12.346,202.6016,36.621Z" fill="#999" opacity="0.43" style="mix-blend-mode:multiply"/><path d="M170.3578,198.5891c.5583,13.4247,25.1274,1.9465,25.2797-11.2714C195.8565,168.322,170.0065,190.1424,170.3578,198.5891Z" fill="#d1d0d1" opacity="0.43" style="mix-blend-mode:multiply"/><path d="M193.5302,156.7755c-.07,10.4465,17.22369-1.5053,15.51829-9.4692C206.30149,134.4787,193.5784,149.5753,193.5302,156.7755Z" fill="#dbdbdb" opacity="0.43" style="mix-blend-mode:multiply"/><path d="M199.18069,171.9265c-3.83139,10.2669,14.773,5.1216,12.91991-4.3705C210.34989,158.5877,201.02829,166.9754,199.18069,171.9265Z" fill="#dbdbdb" opacity="0.43" style="mix-blend-mode:multiply"/><path d="M112.3218,112.5344c-2.9049,33.7025,39.8614,29.6674,47.5162,3.5033C169.6031,82.6603,115.1415,79.8215,112.3218,112.5344Z" fill="#cdcccc" opacity="0.43" style="mix-blend-mode:multiply"/><path d="M198.02939,53.0384c6.4949-1.9808-6.48279-14.59-11.09439-15.1857C178.0528,36.7053,192.2632,52.5464,198.02939,53.0384Z" fill="#cdcccc" opacity="0.43" style="mix-blend-mode:multiply"/><path d="M127.216,172.4651c-18.8276,9.1525-34.1588-14.8349-16.6534-26.11C128.0916,135.0647,148.8927,161.9276,127.216,172.4651Z" fill="#bcbcbb" opacity="0.43" style="mix-blend-mode:multiply"/><path d="M62.2801,214.0557c10.392,5.8408,35.7005,11.177,18.5404-4.7213-4.2558-3.9428-16.5029-10.9561-21.8993-9.6388C49.3544,202.0309,55.5908,210.2959,62.2801,214.0557Z" fill="#cdcccc" opacity="0.43" style="mix-blend-mode:multiply"/><path d="M91.0877,206.7911c1.3496,4.8182,13.6999,9.1784,16.4634,4.7764C112.7806,203.2373,89.385,200.7118,91.0877,206.7911Z" fill="#cdcccc" opacity="0.43" style="mix-blend-mode:multiply"/><path d="M51.1067,185.2399c-1.9916,7.1498,20.0571,16.3205,21.3957,7.9142C73.7255,185.4734,53.6487,176.1141,51.1067,185.2399Z" fill="#cdcccc" opacity="0.43" style="mix-blend-mode:multiply"/><path d="M33.2638,185.9624c-5.9945.0916,6.1372,11.6522,8.9345,12.2734C50.2739,200.0291,42.2521,185.8252,33.2638,185.9624Z" fill="#cdcccc" opacity="0.43" style="mix-blend-mode:multiply"/><path d="M201.57989,65.1714c-.65129,9.2234,14.067,24.5093,14.33771,7.4923C216.01669,66.4292,202.43819,53.0167,201.57989,65.1714Z" fill="#cdcccc" opacity="0.43" style="mix-blend-mode:multiply"/><path d="M182.9043,60.5662c.5815,7.2226,12.7013,16.9238,11.5125,3.7033C193.8248,57.6861,182.0612,50.0938,182.9043,60.5662Z" fill="#cdcccc" opacity="0.43" style="mix-blend-mode:multiply"/><path d="M150.2075,144.9234a8.08058,8.08058,0,0,0,.4285,3.5632,8.90314,8.90314,0,0,0,3.6587,3.7039c3.1158,2.0228,6.9446,3.7684,10.4421,2.5166a8.42571,8.42571,0,0,0,4.5425-4.2877,14.89541,14.89541,0,0,0,1.3502-6.2084,10.33149,10.33149,0,0,0-.8716-4.97,8.96088,8.96088,0,0,0-4.5834-3.9447C156.9489,131.7682,150.6743,136.4035,150.2075,144.9234Z" fill="#cdcccc" opacity="0.43" style="mix-blend-mode:multiply"/><path d="M54.8142,136.6346c-4.4399,9.8705,10.6925,26.076,18.8671,16.2528C82.6346,142.1285,59.4388,126.3537,54.8142,136.6346Z" fill="#bcbcbb" opacity="0.43" style="mix-blend-mode:multiply"/><path d="M121.9988,48.9647c-5.9647,9.6554,16.1191,18.3186,22.2963,9.5665C152.6281,46.7247,130.5991,35.0427,121.9988,48.9647Z" fill="#a8a7a7" opacity="0.43" style="mix-blend-mode:multiply"/><path d="M140.2995,35.4291c-4.721,4.1565,6.8991,7.7893,8.9348,6.1192C152.3813,38.9663,145.3129,31.0151,140.2995,35.4291Z" fill="#bcbcbb" opacity="0.43" style="mix-blend-mode:multiply"/></g></svg>